<svg xmlns="http://www.w3.org/2000/svg" width="80" height="40" viewBox="0 0 80 40">
    <g fill="none" fill-rule="evenodd">
        <path fill="#2F89A4" d="M64.823 1.868c0-.944.764-1.709 1.708-1.709a1.71 1.71 0 0 1 1.717 1.71v1.51c0 .944-.764 1.707-1.717 1.707a1.706 1.706 0 0 1-1.708-1.706V1.868M76.564 6.699a1.707 1.707 0 0 0-2.158-1.095l-7.87 2.557-7.868-2.557A1.707 1.707 0 0 0 56.51 6.7a1.699 1.699 0 0 0 1.097 2.147l6.158 2.002-3.79 5.194a1.701 1.701 0 0 0 .378 2.382 1.72 1.72 0 0 0 2.394-.376l3.797-5.203 3.8 5.203c.558.759 1.629.93 2.395.376a1.7 1.7 0 0 0 .377-2.382l-3.786-5.2 6.138-1.996a1.699 1.699 0 0 0 1.096-2.147M48.003 5.894c0-.72.582-1.302 1.3-1.302.727 0 1.308.583 1.308 1.302v1.15a1.3 1.3 0 0 1-1.308 1.3c-.718 0-1.3-.58-1.3-1.3v-1.15M56.945 9.572a1.3 1.3 0 0 0-1.644-.834l-5.993 1.948-5.993-1.948a1.3 1.3 0 1 0-.808 2.47l4.69 1.525-2.887 3.955a1.296 1.296 0 0 0 .289 1.813 1.31 1.31 0 0 0 1.822-.286l2.893-3.962 2.893 3.962a1.312 1.312 0 0 0 1.824.286c.583-.42.71-1.232.287-1.813l-2.883-3.96 4.674-1.52a1.294 1.294 0 0 0 .836-1.636M35.473 9.16a.972.972 0 1 1 1.946 0v.858a.97.97 0 0 1-.976.97.97.97 0 0 1-.97-.97v-.859"/>
        <path fill="#2F89A4" d="M42.143 11.903a.97.97 0 0 0-1.226-.622l-4.47 1.453-4.47-1.453a.97.97 0 0 0-1.227.622.966.966 0 0 0 .623 1.22l3.5 1.138-2.155 2.95a.967.967 0 0 0 .216 1.353.977.977 0 0 0 1.36-.213l2.157-2.955 2.158 2.955a.979.979 0 0 0 1.36.213.964.964 0 0 0 .215-1.352l-2.151-2.955 3.487-1.134a.965.965 0 0 0 .623-1.22"/>
        <path fill="#1A183D" d="M9.231 39.793c-5.917 0-9.1-3.875-9.1-11.015 0-7.076 3.312-11.015 9.164-11.015 5.82 0 9.069 3.97 9.069 11.047 0 7.108-3.216 10.983-9.133 10.983zm.097-19.468c-3.73 0-5.66 2.85-5.66 8.453 0 2.754.547 5.283 1.48 6.597.835 1.216 2.347 1.888 4.147 1.888 3.73 0 5.532-2.721 5.532-8.453 0-5.7-1.77-8.485-5.5-8.485zM30.068 18.756c-.289-.064-1.318-.192-2.636-.192-1.64 0-2.058.64-2.058 2.785v2.915h4.244v2.145h-4.244v13h-3.12v-13h-2.669v-1.826l2.67-.352v-2.497c0-2.241.16-3.042.74-3.875.739-1.088 1.896-1.633 3.504-1.633s3.41.449 3.892.577l-.323 1.953M35.02 39.728c-1.543 0-2.894-.223-4.823-.704l.515-2.113c1.543.352 2.7.48 3.762.48 2.122 0 3.216-.768 3.216-2.177 0-1.184-.45-1.665-2.54-2.241-2.799-.769-4.824-1.697-4.824-4.42 0-2.913 2.025-4.61 5.37-4.61 1.254 0 2.733.257 4.405.8l-.45 1.986c-1.06-.224-2.444-.48-3.569-.48-1.64 0-2.605.672-2.605 1.953 0 3.202 7.428 1.12 7.428 6.532 0 3.17-2.154 4.994-5.884 4.994M47.208 39.761c-1.48 0-2.573-.608-3.12-1.665-.353-.673-.45-1.44-.45-3.49v-8.197h-2.572v-1.73l2.573-.32v-4.194h3.15v4.099h4.182v2.145H46.79v7.3c0 2.562.032 2.626.257 3.01.225.384.676.576 1.35.576.74 0 1.448-.128 2.67-.449l.482 1.922c-1.833.705-3.087.993-4.341.993M55.022 32.236v.513c0 3.042 1.286 4.418 3.666 4.418 1.383 0 2.637-.256 5.113-1.056l.578 1.856c-3.15 1.377-4.695 1.794-6.527 1.794-3.73 0-6.175-2.754-6.175-7.428 0-5.092 2.508-8.421 6.721-8.421 4.084 0 6.142 2.464 6.142 7.62v.704h-9.518zm3.634-6.115c-2.059 0-3.28 1.473-3.538 4.29l6.432-.256c-.065-2.754-.965-4.034-2.894-4.034zM76.149 39.409v-1.377c-1.8 1.025-3.537 1.729-5.049 1.729-3.28 0-5.21-2.978-5.21-7.877 0-4.835 2.22-7.972 5.564-7.972 1.64 0 3.184.864 4.534 1.664v-8.901h3.152v22.734h-2.991zm-.16-11.944c-1.93-.672-2.542-.832-3.474-.832-2.122 0-3.28 1.73-3.28 5.123 0 3.65 1.061 5.315 3.151 5.315.869 0 1.737-.192 3.602-.896v-8.71z"/>
    </g>
</svg>
