<?xml version="1.0" encoding="utf-8"?>
<!-- Generator: Adobe Illustrator 16.0.0, SVG Export Plug-In . SVG Version: 6.00 Build 0)  -->
<!DOCTYPE svg PUBLIC "-//W3C//DTD SVG 1.1//EN" "http://www.w3.org/Graphics/SVG/1.1/DTD/svg11.dtd">
<svg version="1.1" id="Layer_1" xmlns="http://www.w3.org/2000/svg" xmlns:xlink="http://www.w3.org/1999/xlink" x="0px" y="0px"
	 width="36px" height="36px" viewBox="0 0 500 500" enable-background="new 0 0 500 500" xml:space="preserve">
<g>
	<g>
		<polygon fill="#FFFFFF" points="250.001,346.587 341.66,289.806 341.66,234.952 250.001,291.731 158.34,234.952 158.34,289.806 		
			"/>
	</g>
	<polygon fill="#FFFFFF" points="250.001,270.817 341.66,214.036 341.66,159.183 250.001,215.963 158.34,159.183 158.34,214.036 	
		"/>
	<polygon fill="#FFFFFF" points="250.001,195.047 341.66,138.268 341.66,83.413 250.001,140.192 158.34,83.413 158.34,138.268 	"/>
</g>
<polygon fill="#FFFFFF" points="399.115,22.906 366.1,392.146 248.758,425.145 132.219,392.197 99.422,22.906 49.157,22.906 
	85.469,430.941 248.721,477.094 412.843,430.941 449.156,22.906 "/>
</svg>
