<?xml version="1.0" encoding="utf-8"?>
<!-- Generator: Adobe Illustrator 16.0.0, SVG Export Plug-In . SVG Version: 6.00 Build 0)  -->
<!DOCTYPE svg PUBLIC "-//W3C//DTD SVG 1.1//EN" "http://www.w3.org/Graphics/SVG/1.1/DTD/svg11.dtd">
<svg version="1.1" id="Layer_1" xmlns="http://www.w3.org/2000/svg" xmlns:xlink="http://www.w3.org/1999/xlink" x="0px" y="0px"
	 width="500px" height="330px" viewBox="0 0 1300 500" enable-background="new 0 0 1300 500" xml:space="preserve">
<g>
	<g>
		<polygon fill="#FFFFFF" points="281.282,345.696 372.096,289.438 372.096,235.09 281.282,291.347 190.466,235.09 190.466,289.438 
					"/>
	</g>
	<polygon fill="#FFFFFF" points="281.282,270.625 372.096,214.368 372.096,160.021 281.282,216.277 190.466,160.021 
		190.466,214.368 	"/>
	<polygon fill="#FFFFFF" points="281.282,195.554 372.096,139.298 372.096,84.949 281.282,141.205 190.466,84.949 190.466,139.298 	
		"/>
</g>
<g display="none">
	<path display="inline" fill="#00381E" d="M-57.273,333.208l-42.52-70.394v34.96h9.449v35.434h-62.126v-35.434h9.449v-86.457h-9.449
		v-35.434h51.26l43.229,72.048v-36.614h-9.449v-35.434h62.126v35.434h-9.449v86.457h9.449v35.434H-57.273z"/>
	<path display="inline" fill="#00381E" d="M70.047,333.208H7.92v-35.434h9.449v-86.457H7.92v-35.434h62.126v35.434h-9.449v86.457
		h9.449V333.208z"/>
	<path display="inline" fill="#00381E" d="M142.327,272.263h-6.378v25.512h18.189v35.434H83.271v-35.434h9.449v-86.457h-9.449
		v-35.434H199.02v41.812h-35.433v-6.378h-27.638v25.512h6.378v-6.142h35.433v47.953h-35.433V272.263z"/>
	<path display="inline" fill="#00381E" d="M208.94,201.123l25.276-25.239h69.213l25.276,25.239v106.846l-25.276,25.239h-69.213
		l-25.276-25.239V201.123z M285.477,216.5l-5.197-5.182h-22.913l-5.197,5.182v76.093l5.197,5.182h22.913l5.197-5.182V216.5z"/>
	<path display="inline" fill="#00381E" d="M394.608,297.774h9.449v35.434h-62.126v-35.434h9.449v-86.457h-9.449v-35.434h97.56
		l25.04,25.198v40.269l-10.394,10.361l10.394,10.157v35.905h9.449v35.434h-52.677v-58.583l-4.96-5.197h-21.732V297.774z
		 M394.608,233.995h21.732l4.96-5.142v-12.395l-4.96-5.141h-21.732V233.995z"/>
	<path display="inline" fill="#00381E" d="M573.9,313.838l-34.252-56.93v40.866h9.449v35.434H486.97v-35.434h9.449v-86.457h-9.449
		v-35.434h50.552l36.378,61.182l36.614-61.182h50.789v35.434h-9.686v86.457h9.686v35.434h-62.363v-35.434h9.449v-40.866
		L573.9,313.838z"/>
</g>
<g display="none">
	<polygon display="inline" fill="#00381E" points="-51.067,322.208 -110.793,223.328 -110.793,308.774 -101.344,308.774 
		-101.344,322.208 -141.471,322.208 -141.471,308.774 -132.021,308.774 -132.021,200.318 -141.471,200.318 -141.471,186.884 
		-107.438,186.884 -46.982,287.646 -46.982,200.318 -56.431,200.318 -56.431,186.884 -16.305,186.884 -16.305,200.318 
		-25.753,200.318 -25.753,308.774 -16.305,308.774 -16.305,322.208 	"/>
	<polygon display="inline" fill="#00381E" points="-1.081,322.208 -1.081,308.774 8.369,308.774 8.369,200.318 -1.081,200.318 
		-1.081,186.884 39.046,186.884 39.046,200.318 29.597,200.318 29.597,308.774 39.046,308.774 39.046,322.208 	"/>
	<polygon display="inline" fill="#00381E" points="54.27,322.208 54.27,308.774 63.719,308.774 63.719,200.318 54.27,200.318 
		54.27,186.884 148.018,186.884 148.018,206.696 134.585,206.696 134.585,200.318 84.947,200.318 84.947,247.83 113.325,247.83 
		113.325,241.688 126.758,241.688 126.758,267.641 113.325,267.641 113.325,261.263 84.947,261.263 84.947,308.774 103.136,308.774 
		103.136,322.208 	"/>
	<path display="inline" fill="#00381E" d="M178.765,322.208l-18.828-18.8v-97.724l18.828-18.8h60.109l18.828,18.8v97.724
		l-18.828,18.8H178.765z M181.166,211.934v85.225l11.65,11.615h32.007l11.65-11.615v-85.225l-11.65-11.616h-32.007L181.166,211.934z
		"/>
	<path display="inline" fill="#00381E" d="M352.297,322.208v-51.99l-11.253-11.79h-37.439v50.347h9.449v13.434h-40.126v-13.434
		h9.449V200.318h-9.449v-13.434h81.983l18.616,18.734v31.166l-15.052,15.005l15.052,14.71v42.274h9.449v13.434H352.297z
		 M303.604,244.995h37.405l11.288-11.7v-21.277l-11.289-11.7h-37.404V244.995z"/>
	<polygon display="inline" fill="#00381E" points="509.935,322.208 509.935,308.774 519.383,308.774 519.383,217.521 
		473.927,292.555 428.643,217.288 428.643,308.774 438.092,308.774 438.092,322.208 397.965,322.208 397.965,308.774 
		407.415,308.774 407.415,200.318 397.965,200.318 397.965,186.884 431.26,186.884 473.864,258.538 516.746,186.884 
		550.298,186.884 550.298,200.318 540.612,200.318 540.612,308.774 550.298,308.774 550.298,322.208 	"/>
</g>
<g>
	<path fill="#FFFFFF" d="M480.528,233.614h43.548l1.603,13.091c2.492-3.026,5.343-5.61,8.549-7.748
		c3.206-2.137,6.5-3.828,9.885-5.076c3.381-1.244,6.633-2.137,9.751-2.671c3.114-0.535,5.832-0.802,8.148-0.802
		c6.587,0,12.691,0.935,18.301,2.805s10.461,4.809,14.561,8.817c4.095,4.007,7.301,9.175,9.618,15.496
		c2.312,6.324,3.473,13.851,3.473,22.575v79.082h-45.151v-68.395c0-6.233-1.294-11.222-3.874-14.962
		c-2.584-3.74-6.725-5.61-12.423-5.61c-4.099,0-7.48,0.626-10.152,1.87c-2.671,1.248-4.809,2.938-6.412,5.076s-2.717,4.5-3.339,7.08
		c-0.626,2.584-0.935,5.21-0.935,7.881v67.06h-45.151V233.614z"/>
	<path fill="#FFFFFF" d="M621.859,180.982h48.891v35.533h-48.891V180.982z M623.729,233.614h45.152v125.569h-45.152V233.614z"/>
	<path fill="#FFFFFF" d="M695.328,268.346h-19.236v-34.732h19.236v-4.809c0-8.549,1.424-16.072,4.275-22.576
		c2.847-6.5,6.767-11.977,11.755-16.431c4.984-4.45,10.908-7.835,17.767-10.152c6.855-2.312,14.381-3.473,22.576-3.473
		c7.836,0,15.183,1.114,22.041,3.339c6.854,2.229,12.865,5.39,18.033,9.484l-18.701,29.122c-2.496-1.778-5.209-3.206-8.148-4.275
		c-2.939-1.068-6.012-1.603-9.217-1.603c-4.635,0-8.328,1.428-11.088,4.275c-2.764,2.851-4.141,6.679-4.141,11.488v5.61h27.25
		v34.732h-27.25v90.837h-45.152V268.346z"/>
	<path fill="#FFFFFF" d="M764.523,296.398c0-9.259,1.645-17.988,4.943-26.183c3.293-8.19,7.881-15.316,13.759-21.374
		c5.878-6.053,12.911-10.82,21.106-14.293c8.189-3.473,17.273-5.209,27.251-5.209c9.973,0,19.056,1.736,27.251,5.209
		c8.19,3.473,15.229,8.241,21.105,14.293c5.879,6.057,10.462,13.183,13.76,21.374c3.294,8.194,4.943,16.924,4.943,26.183
		c0,9.442-1.649,18.213-4.943,26.315c-3.298,8.107-7.881,15.188-13.76,21.24c-5.877,6.058-12.915,10.82-21.105,14.293
		c-8.195,3.474-17.278,5.21-27.251,5.21c-9.978,0-19.062-1.736-27.251-5.21c-8.195-3.473-15.229-8.235-21.106-14.293
		c-5.878-6.053-10.466-13.133-13.759-21.24C766.168,314.611,764.523,305.841,764.523,296.398z M831.583,323.916
		c7.48,0,13.446-2.579,17.899-7.747c4.451-5.164,6.68-11.756,6.68-19.771c0-8.016-2.229-14.603-6.68-19.771
		c-4.453-5.164-10.419-7.748-17.899-7.748c-7.481,0-13.45,2.584-17.9,7.748c-4.454,5.168-6.679,11.755-6.679,19.771
		c0,8.015,2.225,14.606,6.679,19.771C818.133,321.337,824.102,323.916,831.583,323.916z"/>
	<path fill="#FFFFFF" d="M908.793,233.614h43.549l1.604,15.763c3.561-4.984,7.969-9.217,13.225-12.69
		c5.251-3.473,11.621-5.209,19.102-5.209c3.562,0,6.634,0.179,9.218,0.534c2.58,0.359,4.851,0.894,6.813,1.603l-5.879,38.472
		c-4.273-1.068-8.641-1.603-13.091-1.603c-19.595,0-29.388,10.778-29.388,32.327v56.372h-45.152V233.614z"/>
	<path fill="#FFFFFF" d="M1006.041,233.614h43.548l1.603,13.893c4.81-6.053,10.461-10.419,16.965-13.091
		c6.5-2.672,12.959-4.008,19.37-4.008c5.878,0,10.908,0.668,15.095,2.004c4.184,1.336,7.703,2.939,10.554,4.809
		c2.847,1.87,5.076,3.74,6.679,5.61c1.604,1.87,2.848,3.34,3.74,4.408c1.959-2.137,4.543-4.229,7.748-6.278
		c3.206-2.045,6.634-3.874,10.286-5.477c3.648-1.603,7.481-2.847,11.488-3.74c4.007-0.889,7.79-1.336,11.354-1.336
		c16.205,0,28.541,4.454,37.003,13.358c8.458,8.909,12.69,21.019,12.69,36.334v79.082h-45.151v-67.06
		c0-6.767-1.336-12.109-4.007-16.029c-2.672-3.916-7.039-5.878-13.092-5.878c-6.057,0-11,1.962-14.828,5.878
		c-3.832,3.92-5.744,9.263-5.744,16.029v67.06h-42.479v-67.06c0-6.767-1.294-12.109-3.874-16.029
		c-2.584-3.916-6.992-5.878-13.225-5.878c-5.702,0-10.553,1.962-14.561,5.878c-4.008,3.92-6.012,9.263-6.012,16.029v67.06h-45.15
		V233.614z"/>
</g>
<rect x="479.437" y="388.084" fill="#FFFFFF" width="737.438" height="7.416"/>
<rect x="479.437" y="402.584" fill="#FFFFFF" width="737.438" height="7.416"/>
<rect x="479.437" y="417.084" fill="#FFFFFF" width="737.438" height="7.416"/>
<polygon fill="#FFFFFF" points="429.856,25 397.146,390.836 280.886,423.529 165.422,390.887 132.927,25 83.125,25 119.103,429.273 
	280.85,475 443.459,429.273 479.437,25 "/>
</svg>
