<?xml version="1.0" encoding="utf-8"?>
<!-- Generator: Adobe Illustrator 16.0.0, SVG Export Plug-In . SVG Version: 6.00 Build 0)  -->
<!DOCTYPE svg PUBLIC "-//W3C//DTD SVG 1.1//EN" "http://www.w3.org/Graphics/SVG/1.1/DTD/svg11.dtd">
<svg version="1.1" id="Layer_1" xmlns="http://www.w3.org/2000/svg" xmlns:xlink="http://www.w3.org/1999/xlink" x="0px" y="0px"
	 width="36px" height="36px" viewBox="0 0 500 500" enable-background="new 0 0 500 500" xml:space="preserve">
<g>
	<polygon fill="#00381E" points="86.312,430.941 50,22.906 450,22.906 413.688,430.941 249.564,477.094 	"/>
</g>
<polygon fill="#66A98A" points="133.062,392.198 100.174,22.906 399.973,22.906 366.942,392.147 249.601,425.145 "/>
<g>
	<g>
		<polygon fill="#00703C" points="250.001,346.587 341.66,289.806 341.66,234.952 250.001,291.731 158.34,234.952 158.34,289.806 		
			"/>
	</g>
	<polygon fill="#00703C" points="250.001,270.817 341.66,214.036 341.66,159.183 250.001,215.963 158.34,159.183 158.34,214.036 	
		"/>
	<polygon fill="#00703C" points="250.001,195.047 341.66,138.268 341.66,83.413 250.001,140.192 158.34,83.413 158.34,138.268 	"/>
</g>
</svg>
